<?xml version="1.0"?>
<svg xmlns="http://www.w3.org/2000/svg" height="512px" viewBox="-19 0 511 511.9941" width="512px"><path d="m384.242188 91.253906c0 3.800782 4.589843 5.707032 7.28125 3.027344l8.109374-8.074219-15.390624-14.691406zm0 0" fill="#006DF0"/><path d="m239.394531 164.351562c4.011719.878907 8.324219.558594 12.328125-1.117187l76.175782-31.875c10.28125-4.304687 15.691406-15.960937 11.757812-26.386719-4.132812-10.945312-16.472656-16.199218-27.171875-11.722656l-70.640625 29.558594-88.511719-18.480469c-14.089843-2.941406-28.769531-.414063-41.0625 7.070313l-67.867187 41.320312c-3.625 2.167969-6.496094 5.398438-8.21875 9.257812l-33.894532 75.839844c-4.628906 10.359375.015626 22.515625 10.378907 27.148438 10.363281 4.628906 22.519531-.015625 27.148437-10.378906l31.246094-69.914063 29.5625-17.667969c-.363281 2.5625-15.398438 112.476563-15.414062 112.585938l.101562.011718c.074219 1.21875-.496094-4.515624 9.976562 94.554688l-44.085937 103.941406c-5.253906 12.390625.53125 26.695313 12.925781 31.953125 12.46875 5.289063 26.730469-.609375 31.953125-12.921875l46.546875-109.75c1.613282-3.808594 2.234375-7.964844 1.796875-12.078125l-9.402343-88.890625 13.929687 1.90625 15.113281 87.570313 5.691406 112.953125c.683594 13.589844 12.40625 24.085937 26.140626 23.078125 13.289062-.972657 23.191406-12.730469 22.519531-26.039063l-5.742188-113.914062c-.046875-.976563-.15625-1.953125-.324219-2.917969l-13.242187-76.726563 16.558594-120.941406-46.945313-22.496094zm0 0" fill="#006DF0"/><path d="m244.160156 44.832031c0 24.757813-20.074218 44.828125-44.832031 44.828125s-44.828125-20.070312-44.828125-44.828125c0-24.761719 20.070312-44.832031 44.828125-44.832031s44.832031 20.070312 44.832031 44.832031zm0 0" fill="#006DF0"/><path d="m466.957031 10.6875-97.550781 23.207031c-4.472656 1.0625-5.984375 6.660157-2.660156 9.832031l19.960937 19.054688 68.683594-38.28125c.589844-.332031 1.167969.449219.679687.917969l-54.070312 51.960937 17.957031 17.136719c2.691407 2.570313 7.066407 1.96875 8.972657-1.210937l44.339843-74c2.632813-4.394532-1.316406-9.804688-6.3125-8.617188zm0 0" fill="#006DF0"/></svg>
